# xmcd CD database file
#
# Track frame offsets:
#	150
#	15000
#	28157
#	39570
#	54460
#	93175
#	111008
#	124096
#	135728
#	148515
#	164295
#	173194
#	184305
#	194385
#
# Disc length: 2787 seconds
#
# Revision: 0
# Processed by: cddbd v1.5.1PL2 Copyright (c) Steve Scherf et al.
# Submitted via: CDex 1.51
#
DISCID=b70ae10e
DTITLE=varios - Super Hits - Blues
DYEAR=2003
DGENRE=Blues
TTITLE0=Taj Mahal/Stagger Lee
TTITLE1=Elmore James/Dust my Broom
TTITLE2=Lightnin' Hopkins/Mojo Hand
TTITLE3=John Lee Hooker/Sally Mae
TTITLE4=B. B. King/Why I sing the Blues
TTITLE5=Mississipi John Hurt/Monday morning Blues
TTITLE6=Howlin' Wolf/I Ain't superstitious
TTITLE7=Etta James/I'd rather go blind
TTITLE8=Big Bill Broonzy/Long Tall Mama
TTITLE9=Muddy Watters/Iodine in my cofee
TTITLE10=Big Joe Williams/Baby please don't go
TTITLE11=Jimmy Reed/Hush Hush
TTITLE12=Junior Wells and Buddy Guy/Messin' with the kid
TTITLE13=Big Joe Turner/How long, how long Blues
EXTD=YEAR: 2003
EXTT0=
EXTT1=
EXTT2=
EXTT3=
EXTT4=
EXTT5=
EXTT6=
EXTT7=
EXTT8=
EXTT9=
EXTT10=
EXTT11=
EXTT12=
EXTT13=
PLAYORDER=
